<?xml version="1.0" encoding="UTF-8" standalone="no"?>
<!-- Created with Inkscape (http://www.inkscape.org/) -->

<svg
   width="137.64421mm"
   height="50.270844mm"
   viewBox="0 0 137.64421 50.270844"
   version="1.1"
   id="svg5"
   inkscape:version="1.2.2 (b0a8486541, 2022-12-01)"
   sodipodi:docname="Anchor FInal.svg"
   xmlns:inkscape="http://www.inkscape.org/namespaces/inkscape"
   xmlns:sodipodi="http://sodipodi.sourceforge.net/DTD/sodipodi-0.dtd"
   xmlns="http://www.w3.org/2000/svg"
   xmlns:svg="http://www.w3.org/2000/svg">
  <sodipodi:namedview
     id="namedview7"
     pagecolor="#ffffff"
     bordercolor="#000000"
     borderopacity="0.25"
     inkscape:showpageshadow="2"
     inkscape:pageopacity="0.0"
     inkscape:pagecheckerboard="0"
     inkscape:deskcolor="#d1d1d1"
     inkscape:document-units="mm"
     showgrid="false"
     inkscape:zoom="0.56390069"
     inkscape:cx="211.91675"
     inkscape:cy="44.334048"
     inkscape:window-width="1920"
     inkscape:window-height="1128"
     inkscape:window-x="0"
     inkscape:window-y="36"
     inkscape:window-maximized="1"
     inkscape:current-layer="layer1" />
  <defs
     id="defs2" />
  <g
     inkscape:label="Layer 1"
     inkscape:groupmode="layer"
     id="layer1"
     transform="translate(-28.766805,-123.62051)">
    <path
       d="m 102.59535,123.62051 v 29.59999 h 5.55017 v -14.91221 c 0.0553,-0.10011 0.11218,-0.19822 0.17356,-0.29231 0.33391,-0.52673 0.77709,-0.93797 1.32954,-1.23346 0.56541,-0.29548 1.24645,-0.44315 2.04284,-0.44315 0.71941,0 1.32318,0.1157 1.81134,0.34695 0.50112,0.21839 0.88027,0.59746 1.13718,1.13705 0.26988,0.52673 0.40455,1.25238 0.40455,2.17736 v 13.21977 h 5.58853 v -13.1812 c 0,-1.46457 -0.16695,-2.71073 -0.50112,-3.7385 -0.33391,-1.02778 -0.8091,-1.85651 -1.42584,-2.486 -0.60378,-0.64239 -1.3298,-1.10467 -2.17752,-1.38732 -0.83503,-0.29549 -1.76663,-0.44339 -2.79453,-0.44339 -1.1819,0 -2.26113,0.25048 -3.23744,0.75152 -0.9025,0.46932 -1.68514,1.12157 -2.35109,1.95162 v -11.06672 z m -60.037925,1.54185 -10.42551,28.05814 h 6.14738 l 1.94098,-5.91605 h 10.08449 l 1.94593,5.91605 h 6.16664 l -10.48334,-28.05814 h -1.46444 z m 2.6989,6.79281 3.55902,10.82067 h -7.10909 z m 26.10099,0.0292 c -1.23349,0 -2.35082,0.23783 -3.35306,0.71318 -0.98928,0.46249 -1.84362,1.13686 -2.56302,2.02332 -0.0392,0.0474 -0.0757,0.0974 -0.11377,0.14589 l -0.19474,-2.49687 h -5.20303 v 20.85089 h 0.59505 c -0.40693,0.18997 -0.75327,0.46884 -1.07579,0.73739 -0.54346,0.45297 -1.03426,0.87313 -1.70101,0.97208 -1.279,0.1905 -2.49687,-0.18574 -3.77217,-0.60272 -1.27539,-0.41725 -2.60537,-0.87524 -4.08053,-0.7448 -1.08482,0.0958 -2.00496,0.51884 -2.87695,0.92604 -0.87201,0.40719 -1.69661,0.79798 -2.60199,0.89641 -1.09728,0.11932 -1.99464,-0.17701 -2.91804,-0.53261 -0.92339,-0.3556 -1.86732,-0.77576 -3.00654,-0.81624 -0.67886,-0.0238 -1.21885,0.41434 -1.69566,0.8509 -0.4768,0.4363 -0.92239,0.89614 -1.29902,1.06363 -2.01324,0.89455 -4.43245,0.29712 -6.73024,0.3429 l 0.0111,0.58208 c 2.18112,-0.0434 4.70401,0.60775 6.95652,-0.39344 0.55668,-0.24738 1.00316,-0.75168 1.45528,-1.16549 0.45215,-0.4138 0.87877,-0.71225 1.28122,-0.69797 1.00635,0.0355 1.87847,0.41513 2.81885,0.77735 0.94038,0.36221 1.95389,0.70167 3.18905,0.56753 1.03039,-0.11192 1.91762,-0.54213 2.78622,-0.94774 0.8686,-0.40587 1.71823,-0.78793 2.68136,-0.87312 1.32403,-0.11695 2.56839,0.29951 3.84808,0.71808 1.27971,0.4183 2.59744,0.83952 4.03862,0.62494 0.85964,-0.12779 1.45204,-0.65378 1.98888,-1.10093 0.53657,-0.44714 1.00674,-0.8128 1.65708,-0.83291 0.85805,-0.0262 1.62454,0.37598 2.4384,0.82471 0.81413,0.44847 1.67191,0.9443 2.70193,0.95515 1.07553,0.0114 1.89362,-0.4752 2.69372,-0.88318 0.8001,-0.40826 1.57718,-0.75221 2.676,-0.6104 0.83449,0.10769 1.49331,0.53711 2.16746,1.04484 0.67416,0.50747 1.35388,1.093 2.22912,1.41976 0.72522,0.27093 1.37715,0.0982 1.92431,-0.17833 0.54743,-0.27676 1.02844,-0.644 1.50839,-0.84138 0.68633,-0.28231 1.42267,-0.36301 2.16932,-0.27675 1.15649,0.13361 2.02221,0.626 2.989,1.1348 0.96679,0.50905 2.03412,1.0279 3.52002,1.11495 1.12924,0.0664 1.95341,-0.52626 2.69636,-1.07765 0.74295,-0.55112 1.41209,-1.05939 2.29897,-1.06812 0.44344,-0.005 1.27608,0.0315 1.70312,0.1307 1.18798,0.2757 2.39819,0.94774 3.6666,1.47003 1.268415,0.52255 2.619375,0.89403 4.062155,0.48048 1.07764,-0.30877 2.04814,-1.14723 2.98794,-1.90368 0.9398,-0.7567 1.84546,-1.4179 2.64292,-1.48907 0.82947,-0.0738 1.79308,0.37227 2.81358,0.87683 1.02023,0.50429 2.0947,1.06018 3.22527,1.05701 1.22264,-0.003 2.26457,-0.45455 3.26363,-0.88794 0.99933,-0.43339 1.95686,-0.84773 3.03213,-0.86731 1.20835,-0.0222 2.33336,0.44133 3.49382,0.93478 1.16046,0.49344 2.35479,1.01653 3.69702,1.0197 1.10913,0.002 2.05634,-0.41883 2.96677,-0.82523 0.91043,-0.40667 1.78621,-0.79878 2.77231,-0.83397 1.01494,-0.0362 2.04946,-0.0532 2.98423,0.22251 1.40864,0.41566 2.86332,1.20412 4.49554,1.2581 1.2745,0.0418 2.62387,-0.65776 3.62532,-1.2065 0.61965,-0.33946 1.03187,-0.75909 1.59464,-0.81042 0.16378,-0.0151 0.36248,0.0627 0.59558,0.15108 v 13.48316 c -0.0233,-0.007 -0.0471,-0.0138 -0.0706,-0.0209 -0.0725,-0.0225 -0.14473,-0.0458 -0.2167,-0.0701 -0.12991,-0.0442 -0.25876,-0.0916 -0.38602,-0.14129 -0.0611,-0.023 -0.12198,-0.0468 -0.1823,-0.0712 -0.18548,-0.0762 -0.36777,-0.15848 -0.5461,-0.24632 -0.1778,-0.0889 -0.3519,-0.18336 -0.5215,-0.28337 -0.0532,-0.032 -0.10609,-0.0643 -0.15822,-0.0974 -0.11774,-0.0717 -0.23309,-0.14632 -0.34607,-0.22331 -0.0561,-0.0386 -0.11166,-0.0778 -0.16669,-0.11774 -0.10768,-0.0778 -0.21299,-0.15796 -0.31591,-0.24051 -0.0508,-0.0399 -0.10081,-0.0802 -0.15055,-0.12091 -0.12303,-0.10372 -0.24236,-0.21035 -0.35772,-0.32041 -0.023,-0.0209 -0.046,-0.0421 -0.0691,-0.0632 -0.136,-0.13256 -0.26617,-0.26961 -0.39053,-0.41037 -0.0362,-0.0426 -0.072,-0.0857 -0.10715,-0.12885 -0.0857,-0.10107 -0.16828,-0.20373 -0.24765,-0.30851 -0.0402,-0.054 -0.0796,-0.10848 -0.11827,-0.16351 -0.072,-0.10107 -0.14103,-0.20373 -0.20691,-0.30771 -0.0344,-0.0537 -0.0677,-0.10768 -0.10054,-0.16192 -0.0688,-0.11616 -0.13388,-0.2339 -0.19526,-0.35322 -0.0236,-0.0437 -0.0466,-0.0876 -0.0691,-0.1315 -0.0796,-0.16219 -0.1524,-0.3265 -0.21801,-0.49318 -0.0132,-0.0368 -0.0262,-0.0736 -0.0389,-0.1106 -0.05,-0.13335 -0.0952,-0.26802 -0.13599,-0.40375 -0.0164,-0.0574 -0.0323,-0.11483 -0.0471,-0.17225 -0.0315,-0.11694 -0.0593,-0.23442 -0.0839,-0.35242 -0.013,-0.0632 -0.0251,-0.12647 -0.0362,-0.18997 -0.0212,-0.12224 -0.0384,-0.24527 -0.0521,-0.3683 -0.004,-0.0344 -0.008,-0.0688 -0.0119,-0.10319 l 1.86611,-0.59029 -6.11558,-5.59435 -1.787,8.09361 2.11773,-0.66966 c 0.62468,3.08689 2.80802,5.81951 6.02773,7.41706 1.9103,0.94774 5.4319,4.02749 6.21216,4.02008 0.82259,-0.003 4.27857,-3.0607 6.21241,-4.02008 3.21998,-1.59755 5.40306,-4.33017 6.02748,-7.41706 l 2.11772,0.66966 -1.78673,-8.09361 -6.11584,5.59435 1.86637,0.59029 c -0.004,0.037 -0.008,0.0738 -0.0127,0.11059 -0.0132,0.12039 -0.0304,0.24051 -0.0508,0.3601 -0.0114,0.064 -0.0236,0.12806 -0.0368,0.19156 -0.0241,0.11589 -0.0516,0.23125 -0.0823,0.34581 -0.0153,0.0606 -0.0318,0.12092 -0.0492,0.18124 -0.0402,0.13362 -0.0849,0.26644 -0.13414,0.39793 -0.013,0.0378 -0.0262,0.0757 -0.0399,0.11325 -0.0656,0.16668 -0.13812,0.33099 -0.21776,0.49318 -0.0227,0.0439 -0.0458,0.0878 -0.0693,0.1315 -0.0614,0.11932 -0.1262,0.23706 -0.19499,0.35322 -0.0328,0.0542 -0.0664,0.10821 -0.10081,0.16192 -0.0659,0.10398 -0.13467,0.20664 -0.20664,0.30771 -0.0386,0.055 -0.078,0.10954 -0.11853,0.16351 -0.0794,0.10478 -0.16193,0.20744 -0.24739,0.30851 -0.0352,0.0431 -0.0712,0.0863 -0.10742,0.12885 -0.12409,0.14076 -0.25453,0.27781 -0.39053,0.41037 -0.0228,0.0212 -0.0458,0.0423 -0.0688,0.0632 -0.11562,0.11006 -0.23495,0.21669 -0.35798,0.32041 -0.0495,0.0408 -0.0998,0.081 -0.15028,0.12091 -0.10292,0.0825 -0.20849,0.16272 -0.31618,0.24051 -0.0548,0.04 -0.11033,0.0791 -0.16669,0.11774 -0.11297,0.077 -0.22833,0.15161 -0.34581,0.22331 -0.0524,0.0331 -0.10504,0.0656 -0.15822,0.0974 -0.16986,0.10001 -0.34369,0.19447 -0.52149,0.28337 -0.17859,0.0878 -0.36063,0.17012 -0.5461,0.24632 -0.0606,0.0243 -0.12144,0.0482 -0.18256,0.0712 -0.12727,0.0497 -0.25586,0.0968 -0.38603,0.14129 -0.0717,0.0243 -0.14393,0.0476 -0.21669,0.0701 -0.0236,0.007 -0.0471,0.014 -0.0709,0.0212 v -11.51127 c 2.26827,0.15081 4.07987,-1.01838 6.00419,-1.68116 1.96347,-0.67654 3.83937,-0.18627 5.7359,0.61568 0.30401,0.12859 0.61621,0.41434 1.06468,0.57388 0.3175,0.11325 0.61357,0.10875 0.84588,0.14764 l 0.0971,-0.57467 c -0.29898,-0.0503 -0.55748,-0.054 -0.74772,-0.12171 -0.30056,-0.10689 -0.6043,-0.38047 -1.03266,-0.56145 -1.94575,-0.82285 -3.99865,-1.37186 -6.15289,-0.62997 -2.01745,0.69506 -3.74041,1.79282 -5.79358,1.64941 -0.007,-2.6e-4 -0.0138,-0.002 -0.0209,-0.003 v -8.72186 h -0.002 v -7.10192 c 0.18203,-0.40822 0.4191,-0.76536 0.71331,-1.06955 0.38524,-0.38542 0.86069,-0.67429 1.42611,-0.86698 0.57811,-0.20556 1.25888,-0.30838 2.04258,-0.30838 0.30824,0 0.64876,0.0193 1.02129,0.0579 0.3855,0.0257 0.71279,0.0577 0.98266,0.0962 l 0.0966,-5.14535 c -0.20558,-0.0771 -0.46911,-0.13483 -0.79031,-0.17335 -0.32094,-0.0514 -0.63553,-0.0772 -0.94377,-0.0772 -0.97631,0 -1.84388,0.23138 -2.60165,0.6939 -0.75803,0.46249 -1.40044,1.11752 -1.92722,1.96546 -0.0558,0.0922 -0.10981,0.18695 -0.16272,0.28265 l -0.18389,-2.55648 h -5.22261 v 20.85085 h 0.003 v 0.0492 c -0.19367,-0.0656 -0.40666,-0.11616 -0.64929,-0.0939 -0.8038,0.0736 -1.30307,0.5969 -1.8206,0.88027 -0.9853,0.54001 -2.29023,1.16998 -3.32713,1.13559 -1.45071,-0.0476 -2.85962,-0.79561 -4.35002,-1.23534 -1.05092,-0.31009 -2.14894,-0.28231 -3.17023,-0.2458 -1.1266,0.0402 -2.07989,0.47942 -2.98794,0.88503 -0.90779,0.40534 -1.76874,0.77576 -2.72838,0.77364 -1.18957,-0.002 -2.30849,-0.47942 -3.47107,-0.97366 -1.16284,-0.49451 -2.3704,-1.00542 -3.73221,-0.98055 -1.21709,0.0222 -2.25452,0.4826 -3.25226,0.91519 -0.99775,0.4326 -1.95501,0.83715 -3.03398,0.84006 -0.93186,0.002 -1.94257,-0.49134 -2.96545,-0.99695 -1.02314,-0.50589 -2.06084,-1.0295 -3.12288,-0.93478 -1.05701,0.0939 -2.00977,0.85249 -2.95698,1.61502 -0.94747,0.76253 -1.8923,1.54305 -2.78262,1.79811 -1.2618,0.36168 -2.45639,0.0452 -3.680365,-0.45879 -1.22422,-0.50403 -2.45348,-1.19671 -3.75629,-1.49913 -0.54662,-0.127 -1.36498,-0.15055 -1.84044,-0.14578 -1.10516,0.0111 -1.90341,0.63526 -2.64027,1.18215 -0.73687,0.5469 -1.40468,1.01812 -2.31617,0.96467 -1.36895,-0.0804 -2.32727,-0.54583 -3.28242,-1.0488 -0.95541,-0.50271 -1.90791,-1.04961 -3.19352,-1.19804 -0.83211,-0.096 -1.67164,-0.006 -2.45745,0.31671 -0.58049,0.23892 -1.07103,0.61807 -1.5494,0.8599 -0.47863,0.24182 -0.90699,0.35956 -1.45918,0.15319 -0.75116,-0.28045 -1.38933,-0.81729 -2.08228,-1.33932 -0.6932,-0.52175 -1.4515,-1.02896 -2.44237,-1.15702 -1.25597,-0.16219 -2.19471,0.24977 -3.01519,0.66834 -0.82021,0.4183 -1.52691,0.82894 -2.42226,0.81968 -0.84322,-0.009 -1.60972,-0.43154 -2.42755,-0.88239 -0.44106,-0.24315 -0.89905,-0.49159 -1.39091,-0.66648 h 2.67202 v -14.79032 c 0.078,-0.14393 0.16113,-0.28218 0.2503,-0.4142 0.35983,-0.52673 0.80936,-0.938 1.34911,-1.23349 0.55245,-0.29549 1.20121,-0.44315 1.94627,-0.44315 0.71941,0 1.32319,0.10927 1.81161,0.32766 0.50085,0.20555 0.88,0.56528 1.13691,1.07918 0.25691,0.5139 0.3855,1.23333 0.3855,2.15834 v 13.31598 h 5.58879 V 139.9237 c 0,-1.4646 -0.1606,-2.70431 -0.4818,-3.71925 -0.30824,-1.01491 -0.75803,-1.83076 -1.34885,-2.44742 -0.57811,-0.61667 -1.27212,-1.06633 -2.08148,-1.34895 -0.80936,-0.28266 -1.70233,-0.4241 -2.67864,-0.4241 z m 19.50217,0 c -1.60575,0 -3.00619,0.26979 -4.20078,0.80936 -1.19486,0.53959 -2.19049,1.29124 -2.98715,2.2548 -0.7964,0.9507 -1.39409,2.06828 -1.79229,3.35299 -0.3982,1.27188 -0.59743,2.64662 -0.59743,4.12406 v 0.55888 c 0,1.46457 0.19923,2.83932 0.59743,4.12406 0.3982,1.27188 0.99589,2.38945 1.79229,3.35293 0.79666,0.95065 1.79229,1.69598 2.98715,2.23546 1.20755,0.53975 2.62069,0.80936 4.23941,0.80936 1.60602,0 3.05779,-0.3212 4.35531,-0.96361 1.29752,-0.65511 2.33177,-1.54807 3.1025,-2.67859 0.77074,-1.14342 1.16285,-2.44731 1.17555,-3.91189 h -5.22235 c -0.013,0.65522 -0.17356,1.22701 -0.4818,1.71522 -0.29554,0.47535 -0.70671,0.8477 -1.23349,1.11749 -0.52679,0.25694 -1.13057,0.38553 -1.81134,0.38553 -0.82232,0 -1.49013,-0.16698 -2.00422,-0.50102 -0.51382,-0.33404 -0.91863,-0.79012 -1.21417,-1.36824 -0.28258,-0.57814 -0.47519,-1.23986 -0.57812,-1.98501 -0.10265,-0.74515 -0.15398,-1.52231 -0.15398,-2.33169 v -0.55888 c 0,-0.80936 0.0513,-1.58012 0.15398,-2.31241 0.11563,-0.74514 0.31486,-1.40687 0.59743,-1.98498 0.28258,-0.59097 0.68104,-1.05352 1.19486,-1.38756 0.51409,-0.34686 1.17555,-0.5203 1.98491,-0.5203 0.75803,0 1.39382,0.17344 1.90764,0.5203 0.52679,0.33404 0.92525,0.7837 1.19513,1.34898 0.28257,0.56528 0.43021,1.19478 0.44317,1.88855 h 5.22235 c -0.0127,-1.6573 -0.39185,-3.08976 -1.13692,-4.29742 -0.73236,-1.22047 -1.7473,-2.15821 -3.04482,-2.81342 -1.28482,-0.65519 -2.78157,-0.98295 -4.49025,-0.98295 z m 42.935795,0 c -1.58009,0 -2.9808,0.26979 -4.20132,0.80936 -1.22025,0.52676 -2.24816,1.26553 -3.08318,2.21623 -0.83503,0.95067 -1.47109,2.0747 -1.90765,3.37227 -0.43683,1.28474 -0.65537,2.69168 -0.65537,4.2205 v 0.40457 c 0,1.51599 0.21854,2.92294 0.65537,4.22051 0.43656,1.28471 1.07262,2.40874 1.90765,3.37227 0.84799,0.95065 1.88198,1.68936 3.1025,2.21615 1.23348,0.52678 2.64001,0.79004 4.22037,0.79004 1.58009,0 2.98079,-0.26326 4.20105,-0.79004 1.22052,-0.52679 2.24816,-1.2655 3.08345,-2.21615 0.84773,-0.96353 1.49014,-2.08756 1.92696,-3.37227 0.43683,-1.29757 0.65538,-2.70452 0.65538,-4.22051 v -0.40457 c 0,-1.52882 -0.21855,-2.93576 -0.65538,-4.2205 -0.43682,-1.29757 -1.07923,-2.4216 -1.92696,-3.37227 -0.83529,-0.9507 -1.86928,-1.68947 -3.1025,-2.21623 -1.23349,-0.53957 -2.64028,-0.80936 -4.22037,-0.80936 z m 0,4.33596 c 0.7837,0 1.4515,0.16698 2.00395,0.50102 0.55245,0.33403 0.99563,0.79658 1.3298,1.38755 0.34687,0.57812 0.59743,1.24629 0.75142,2.00427 0.16695,0.74515 0.25056,1.54165 0.25056,2.38956 v 0.40457 c 0,0.87361 -0.0836,1.68945 -0.25056,2.44743 -0.15399,0.758 -0.3982,1.42615 -0.7321,2.0043 -0.33417,0.56525 -0.77735,1.00848 -1.3298,1.32966 -0.55245,0.32118 -1.21417,0.48173 -1.9849,0.48173 -0.79667,0 -1.47082,-0.16055 -2.02327,-0.48173 -0.55245,-0.32118 -1.00225,-0.76441 -1.34911,-1.32966 -0.33391,-0.57815 -0.57812,-1.2463 -0.73211,-2.0043 -0.15425,-0.75798 -0.23151,-1.57382 -0.23151,-2.44743 v -0.40457 c 0,-0.84791 0.0773,-1.64441 0.23151,-2.38956 0.15399,-0.75798 0.3982,-1.42615 0.73211,-2.00427 0.34686,-0.59097 0.79004,-1.05352 1.32979,-1.38755 0.55245,-0.33404 1.22052,-0.50102 2.00422,-0.50102 z"
       fill="#4078f2"
       id="path182"
       style="stroke-width:0.264583" />
  </g>
</svg>
