<?xml version="1.0" encoding="UTF-8" standalone="no"?>
<svg
   preserveAspectRatio="none"
   width="100%"
   height="100%"
   overflow="visible"
   style="display: block;"
   viewBox="0 0 2246.99 1204.73"
   fill="none"
   version="1.1"
   id="svg3"
   xmlns="http://www.w3.org/2000/svg"
   xmlns:svg="http://www.w3.org/2000/svg">
  <defs
     id="defs7" />
  <path
     id="Vector"
     d="m 141.096,894.854 c -104.4999,-120 -338.277,-465.148 282,-303.5 612.304,159.571 919.724,-185.16 1170.404,-411.128 87.08,-78.492 179.4624,-146.093358 251.1,-166.372 71.6376,-20.2786416 663.4627,-156.3677 715.2343,-85.607637 22.0377,30.120554 569.8315,-156.272603 640.2905,26.136657 159.0757,411.82601 -116.0525,1391.57438 -164.6086,1664.84638 -58.0705,326.8194 -650.1797,-146.865 -707.5635,-18.6443 C 2278.0998,1711.9783 2246.99,1028.2257 2185.5,894.854 2124.01,761.48234 1880,658.505 1677.5,658.505 c -202.5,0 -408.78,152.273 -561.4,275.94 -195.805,158.645 -356.431,284.225 -602.004,256.405 -436.9999,-49.5 -268.5,-176 -373,-295.996 z"
     fill="var(--fill-0, #4078F2)"
     stroke="var(--stroke-0, #4078F2)"
     stroke-width="20"
     style="fill:#4078f2;fill-opacity:1;stroke:none" />
</svg>
